<?xml version="1.0" encoding="utf-8"?>
<!-- Generator: Adobe Illustrator 28.0.0, SVG Export Plug-In . SVG Version: 6.00 Build 0)  -->
<svg version="1.1" id="Layer_1" xmlns="http://www.w3.org/2000/svg" xmlns:xlink="http://www.w3.org/1999/xlink" x="0px" y="0px"
	 viewBox="0 0 612 792" style="enable-background:new 0 0 612 792;" xml:space="preserve">
<style type="text/css">
	.st0{font-family:'Arial-ItalicMT';}
	.st1{font-size:5px;}
	.st2{fill:#414042;}
	.st3{font-family:'Arial-BoldMT';}
	.st4{font-family:'ArialMT';}
	.st5{fill:#231F20;}
	.st6{fill:none;stroke:#000000;stroke-width:0.5;stroke-miterlimit:10;}
	.st7{fill:none;stroke:#1565C0;}
	.st8{fill:#FFFFFF;}
	.st9{fill:none;stroke:#F9A825;}
	.st10{fill:#F9A825;}
	.st11{fill:#1565C0;}
	.st12{fill:none;stroke:#000000;stroke-width:0.5;}
	.st13{fill:none;stroke:#990000;}
	.st14{fill:#990000;}
	.st15{fill:#FFFFFF;stroke:#58595B;stroke-miterlimit:10;}
	.st16{fill:#C62828;}
	.st17{fill:#C62828;stroke:#FFFFFF;}
	.st18{fill:#1565C0;stroke:#FFFFFF;}
	.st19{fill:#F9A825;stroke:#FFFFFF;}
	.st20{fill:none;stroke:#6D6E71;}
</style>
<g>
	<text transform="matrix(1 0 0 1 314.1206 372.6329)" class="st0 st1"> </text>
	<text transform="matrix(1 0 0 1 278.3961 374.1785)" class="st2 st3 st1">Unknown Responses</text>
	<text transform="matrix(1 0 0 1 333.236 373.1785)" class="st4 st1"> </text>
	<text transform="matrix(1 0 0 1 289.3629 380.3143)" class="st5 st4 st1">(n = 284 + 1)</text>
	<g>
		<polygon class="st6" points="236.3,400.38 244.48,387.02 298.47,387.02 290.29,400.38 		"/>
		<text transform="matrix(1 0 0 1 243.9884 392.767)" class="st4 st1">4872 immune-related</text>
		<text transform="matrix(1 0 0 1 255.8155 398.6896)" class="st4 st1">pathways</text>
	</g>
	<text transform="matrix(1 0 0 1 287.3751 418.7311)" class="st4 st1"> </text>
	<g>
		<polygon class="st6" points="187.9,400.45 196.08,387.09 232.89,387.09 224.71,400.45 		"/>
		<text transform="matrix(1 0 0 1 196.5044 392.8405)" class="st4 st1">28 types of </text>
		<text transform="matrix(1 0 0 1 194.8687 399.1874)" class="st4 st1">immune cells</text>
	</g>
	<line class="st6" x1="233.15" y1="417.9" x2="233.15" y2="424.61"/>
	<polygon points="233.15,426.76 231.72,423.9 233.15,424.61 234.58,423.9 	"/>
	<polygon class="st6" points="233.15,426.76 231.72,423.9 233.15,424.61 234.58,423.9 	"/>
	<text transform="matrix(1 0 0 1 237.0194 413.6977)" class="st3 st1">ssGSEA</text>
	<text transform="matrix(1 0 0 1 232.7061 394.5918)" class="st3 st1">+</text>
	<path class="st6" d="M259.77,400.9c0,2.26-1.83,4.09-4.09,4.09h-18.41c-2.26,0-4.09,1.83-4.09,4.09c0-2.26-1.83-4.09-4.09-4.09
		h-18.41c-2.26,0-4.09-1.83-4.09-4.09"/>
	<line class="st6" x1="178.95" y1="436.75" x2="178.95" y2="383.21"/>
	<line class="st6" x1="178.95" y1="436.75" x2="288.85" y2="436.75"/>
	<polygon points="288.85,436.75 285.99,438.18 286.71,436.75 285.99,435.32 	"/>
	<polygon class="st6" points="288.85,436.75 285.99,438.18 286.71,436.75 285.99,435.32 	"/>
	<line class="st6" x1="307.31" y1="383.21" x2="307.31" y2="447.51"/>
	<polygon points="307.31,449.65 305.88,446.79 307.31,447.51 308.74,446.79 	"/>
	<polygon class="st6" points="307.31,449.65 305.88,446.79 307.31,447.51 308.74,446.79 	"/>
	<line class="st6" x1="233.18" y1="408.67" x2="233.18" y2="414.24"/>
	<polygon points="233.18,416.39 231.75,413.53 233.18,414.24 234.61,413.53 	"/>
	<polygon class="st6" points="233.18,416.39 231.75,413.53 233.18,414.24 234.61,413.53 	"/>
	<line class="st6" x1="274.59" y1="450.11" x2="340.04" y2="450.11"/>
	<line class="st6" x1="274.59" y1="454.29" x2="274.59" y2="450.11"/>
	<line class="st6" x1="340.04" y1="454.29" x2="340.04" y2="450.11"/>
	<text transform="matrix(1 0 0 1 203.5517 444.1357)" class="st3 st1">Positive-Unlabeled Learning</text>
	<rect x="247.75" y="454.09" class="st7" width="54.18" height="20.45"/>
	<text transform="matrix(1 0 0 1 264.9985 459.8141)" class="st3 st1">MSS-PR</text>
	<text transform="matrix(1 0 0 1 285.6752 459.8141)" class="st4 st1"> </text>
	<text transform="matrix(1 0 0 1 250.2084 466.359)" class="st0 st1">Potential Responders</text>
	<text transform="matrix(1 0 0 1 300.4575 466.359)" class="st4 st1"> </text>
	<rect x="312.29" y="454.09" class="st8" width="53.18" height="20.45"/>
	<rect x="312.29" y="454.09" class="st9" width="53.18" height="20.45"/>
	<text transform="matrix(1 0 0 1 328.3897 459.8141)" class="st3 st1">MSS-NR</text>
	<text transform="matrix(1 0 0 1 319.8116 466.359)" class="st0 st1">Non-responders</text>
	<text transform="matrix(1 0 0 1 315.5897 472.3619)" class="st10 st4 st1">(Unlabeled Negative)</text>
	<text transform="matrix(1 0 0 1 253.254 472.4195)" class="st11 st4 st1">(Unlabeled Positive)</text>
	<line class="st6" x1="233.29" y1="428.15" x2="233.29" y2="433.86"/>
	<polygon points="233.29,436.01 231.86,433.14 233.29,433.86 234.73,433.14 	"/>
	<polygon class="st6" points="233.29,436.01 231.86,433.14 233.29,433.86 234.73,433.14 	"/>
	<text transform="matrix(1 0 0 1 236.7688 422.2183)" class="st3 st1">High Variance Features</text>
	<text transform="matrix(1 0 0 1 236.7689 431.7879)" class="st3 st1">PCA</text>
	<line class="st6" x1="358.39" y1="436.84" x2="358.39" y2="356.18"/>
	<polyline points="358.39,354.04 359.82,356.9 358.39,356.18 356.96,356.9 358.39,354.04 	"/>
	<polygon class="st6" points="358.39,354.04 359.82,356.9 358.39,356.18 356.96,356.9 	"/>
	<line class="st6" x1="420.51" y1="436.84" x2="325.58" y2="436.84"/>
	<line class="st6" x1="420.22" y1="436.85" x2="420.22" y2="356.2"/>
	<polyline points="420.22,354.05 421.65,356.91 420.22,356.2 418.79,356.91 420.22,354.05 	"/>
	<polygon class="st6" points="420.22,354.05 421.65,356.91 420.22,356.2 418.79,356.91 	"/>
	<g>
		<text transform="matrix(1 0 0 1 290.8092 337.9379)"><tspan x="0" y="0" class="st3 st1">MSS </tspan><tspan x="12.22" y="0" class="st4 st1">patients in </tspan><tspan x="3.76" y="6" class="st4 st1">TCGA-STAD</tspan><tspan x="8.13" y="12" class="st4 st1">(n = 284)</tspan></text>
		<rect x="285.93" y="332.35" class="st12" width="45.09" height="20.36"/>
		<text transform="matrix(1 0 0 1 285.5728 330.7877)" class="st3 st1">Training Dataset</text>
	</g>
	<g>
		<text transform="matrix(1 0 0 1 380.2638 347.9177)" class="st3 st1"> </text>
		<text transform="matrix(1 0 0 1 340.9539 337.9379)"><tspan x="0" y="0" class="st3 st1">MSS </tspan><tspan x="12.22" y="0" class="st4 st1">patients in </tspan><tspan x="3.19" y="6" class="st4 st1">PRJEB25780</tspan><tspan x="9.52" y="12" class="st4 st1">(n = 38)</tspan></text>
		<rect x="336.07" y="332.35" class="st12" width="45.09" height="20.36"/>
		<text transform="matrix(1 0 0 1 335.6326 330.7877)" class="st3 st1">Validation Dataset</text>
	</g>
	<g>
		<rect x="386.99" y="332.35" class="st12" width="77.09" height="20.36"/>
		<text transform="matrix(1 0 0 1 405.6588 337.9378)"><tspan x="0" y="0" class="st3 st1">MSI-H </tspan><tspan x="15.55" y="0" class="st4 st1">patients in </tspan><tspan x="-15.71" y="6" class="st4 st1">PRJEB25780 and PRJEB40416</tspan><tspan x="11.18" y="12" class="st4 st1">(n = 22)</tspan></text>
		<text transform="matrix(1 0 0 1 386.5748 330.7878)" class="st3 st1">Extended Validation Dataset</text>
	</g>
	<g>
		<line class="st6" x1="276.72" y1="317.01" x2="276.72" y2="357.54"/>
		<polyline points="276.72,359.69 275.29,356.82 276.72,357.54 278.15,356.82 276.72,359.69 		"/>
		<polygon class="st6" points="276.72,359.69 275.29,356.82 276.72,357.54 278.15,356.82 		"/>
	</g>
	<line class="st6" x1="358.53" y1="324.84" x2="358.53" y2="317.03"/>
	<line class="st6" x1="276.6" y1="317.03" x2="420.79" y2="317.03"/>
	<line class="st6" x1="420.54" y1="324.72" x2="420.54" y2="316.91"/>
	<path class="st6" d="M308.31,353.09"/>
	<g>
		<line class="st6" x1="308.31" y1="358.69" x2="308.31" y2="352.78"/>
		<polygon points="308.28,359.69 306.85,356.82 308.28,357.54 309.71,356.82 		"/>
		<polygon class="st6" points="308.28,359.69 306.85,356.82 308.28,357.54 309.71,356.82 		"/>
	</g>
	<g>
		<rect x="148.67" y="366.91" class="st13" width="63.3" height="16.45"/>
		<text transform="matrix(1 0 0 1 165.6265 373.1078)" class="st14 st3 st1">Responders</text>
		<text transform="matrix(1 0 0 1 171.3893 380.3141)" class="st5 st4 st1">(n = 40)</text>
		<text transform="matrix(1 0 0 1 148.87 365.3629)" class="st14 st3 st1">Positive Dataset</text>
	</g>
	<text transform="matrix(1 0 0 1 272.7139 365.3603)" class="st2 st3 st1">Unlabeled Dataset</text>
	<g>
		<text transform="matrix(1 0 0 1 150.673 337.9381)"><tspan x="0" y="0" class="st3 st1">MSI-H &amp; TMB-H &amp; TILs-H</tspan><tspan x="2.77" y="6" class="st4 st1">patients in TCGA-STAD</tspan><tspan x="20.62" y="12" class="st4 st1">(n = 40)</tspan></text>
		<rect x="148.89" y="331.35" class="st12" width="63.09" height="21.36"/>
		<text transform="matrix(1 0 0 1 148.5346 329.7879)" class="st3 st1">Training Dataset</text>
	</g>
	<path class="st6" d="M169.54,325.5"/>
	<g>
		<line class="st6" x1="178.65" y1="358.74" x2="178.65" y2="352.83"/>
		<polygon points="178.62,359.74 177.19,356.87 178.62,357.59 180.05,356.87 		"/>
		<polygon class="st6" points="178.62,359.74 177.19,356.87 178.62,357.59 180.05,356.87 		"/>
	</g>
	<rect x="290.14" y="431.53" class="st15" width="35.1" height="11.34"/>
	<text transform="matrix(1 0 0 1 294.3781 439.2409)" class="st16 st3 st1">PUL Score</text>
	<rect x="285.71" y="319.27" class="st17" width="6.79" height="6.79"/>
	<rect x="335.77" y="319.27" class="st18" width="6.79" height="6.79"/>
	<rect x="386.71" y="319.27" class="st19" width="6.79" height="6.79"/>
	<text transform="matrix(1 0 0 1 287.6317 324.6163)" class="st8 st3 st1">1</text>
	<text transform="matrix(1 0 0 1 337.498 324.6161)" class="st8 st3 st1">2</text>
	<text transform="matrix(1 0 0 1 388.6868 324.5839)" class="st8 st3 st1">3</text>
	<rect x="272.87" y="366.91" class="st20" width="61.75" height="16.45"/>
</g>
</svg>
